<svg xmlns="http://www.w3.org/2000/svg" viewBox="0 0 180 180" role="img" aria-label="TfL Next Train iOS icon">
  <defs>
    <linearGradient id="bg" x1="24" y1="10" x2="156" y2="170" gradientUnits="userSpaceOnUse">
      <stop stop-color="#F8FBFF"/>
      <stop offset="0.52" stop-color="#DFF1FF"/>
      <stop offset="1" stop-color="#F6E7FF"/>
    </linearGradient>
    <linearGradient id="glass" x1="44" y1="36" x2="136" y2="144" gradientUnits="userSpaceOnUse">
      <stop stop-color="#FFFFFF" stop-opacity="0.92"/>
      <stop offset="1" stop-color="#FFFFFF" stop-opacity="0.52"/>
    </linearGradient>
  </defs>
  <rect width="180" height="180" rx="40" fill="url(#bg)"/>
  <circle cx="136" cy="42" r="34" fill="#A78BFA" opacity="0.52"/>
  <circle cx="44" cy="136" r="40" fill="#38BDF8" opacity="0.45"/>
  <rect x="38" y="30" width="104" height="120" rx="30" fill="url(#glass)" stroke="#FFFFFF" stroke-width="4"/>
  <path d="M59 72c0-16 13-29 29-29h4c16 0 29 13 29 29v34c0 8-7 15-15 15H74c-8 0-15-7-15-15V72Z" fill="#0F172A"/>
  <path d="M72 71c0-8 7-15 15-15h6c8 0 15 7 15 15v11H72V71Z" fill="#FFFFFF"/>
  <circle cx="77" cy="105" r="6" fill="#EAF4FF"/>
  <circle cx="103" cy="105" r="6" fill="#EAF4FF"/>
  <path d="M77 133h26" stroke="#0F172A" stroke-width="9" stroke-linecap="round"/>
</svg>
